Coordinates
version=1
nRows=19
nColumns=34
inDegrees=yes

Units are S.I. units (second, meters, Newtons, ...)
If the header above contains a line with 'inDegrees', this indicates whether rotational values are in degrees (yes) or radians (no).

endheader
time	pelvis_tilt	pelvis_list	pelvis_rotation	pelvis_tx	pelvis_ty	pelvis_tz	hip_flexion_r	hip_adduction_r	hip_rotation_r	knee_angle_r	ankle_angle_r	subtalar_angle_r	mtp_angle_r	hip_flexion_l	hip_adduction_l	hip_rotation_l	knee_angle_l	ankle_angle_l	subtalar_angle_l	mtp_angle_l	lumbar_extension	lumbar_bending	lumbar_rotation	arm_flex_r	arm_add_r	arm_rot_r	elbow_flex_r	pro_sup_r	arm_flex_l	arm_add_l	arm_rot_l	elbow_flex_l	pro_sup_l
      5.38333330	     -5.50110646	     -5.60116179	      6.83405110	      0.01922415	      0.85780974	     -0.15712772	     27.99888885	      0.64571964	     -0.41030890	     17.50233264	    -20.72864060	    -35.00000000	      0.00000000	     12.22542961	      2.51151520	     -4.17219557	     15.63367307	      4.12582368	    -14.40738513	      0.00000000	     -7.80114062	      4.01281139	     -4.33611375	     91.93807696	     10.08686758	     66.63895355	    121.49664987	    111.08134780	     85.79402292	      7.12215111	     71.72722253	    137.46233985	     97.36248445
      5.40000000	     -3.69969966	     -5.47027545	      6.67278178	      0.01944853	      0.85602458	     -0.15574974	     25.92249594	     -0.15559152	     -1.56942992	     18.84099891	    -18.92413705	    -30.82427391	      0.00000000	      9.81790714	      2.48193110	     -3.02350752	     15.00605457	      3.91072045	    -14.09714705	      0.00000000	     -9.59732038	      3.91645471	     -3.59306737	     92.98103556	      9.68012239	     65.94432957	    120.90989391	    111.11418015	     87.01926166	      6.82979185	     70.56869873	    136.61404801	     97.85387104
      5.41666670	     -2.98088823	     -5.07548883	      6.32891431	      0.02014631	      0.85349391	     -0.15439890	     24.52558671	     -0.93351360	     -2.29015085	     19.67554671	    -14.22323469	    -26.67065025	      0.00000000	      8.65980416	      2.73188166	     -2.61732054	     14.54178352	      4.27604082	    -13.96973956	      0.00000000	     -9.97642698	      3.45604421	     -3.02584788	     93.00404071	      9.90398683	     65.68119152	    119.77777940	    111.02954568	     86.99875904	      6.62901365	     69.95640671	    136.45681144	     98.11178936
      5.43333330	     -2.63022604	     -4.71769276	      5.89852208	      0.01988055	      0.85117569	     -0.15401228	     24.22298089	     -1.62066198	     -1.99013194	     20.26461942	    -11.63357728	    -25.53002152	      0.00000000	      8.19756389	      2.97520507	     -2.11015943	     14.44994472	      4.44148061	    -14.47615995	      0.00000000	    -10.07210989	      2.90224139	     -2.43816967	     92.92169033	     10.10903497	     65.58262030	    119.23584647	    110.99380146	     86.59325644	      6.57662012	     69.02090000	    137.27198381	     98.19744903
      5.45000000	     -2.46149385	     -4.60748572	      5.59292784	      0.02003504	      0.85138335	     -0.15340354	     24.04767189	     -1.93442231	     -1.99302409	     20.18335090	     -9.93821264	    -24.70700588	      0.00000000	      7.91175578	      3.02017482	     -1.33174004	     14.38554546	      4.44037533	    -15.45181586	      0.00000000	     -9.97215718	      2.71114081	     -2.31811600	     92.69900681	     10.50908196	     65.44319891	    118.87361764	    110.97638998	     86.09895960	      6.02665540	     68.50448083	    137.56425921	     98.27371292
      5.46666670	     -2.39075798	     -4.62660340	      5.43256234	      0.01883279	      0.85345820	     -0.15358050	     24.11994694	     -1.97639144	     -1.83501413	     19.75124407	     -9.55320482	    -24.64507120	      0.00000000	      8.00881764	      2.89856837	     -0.82900565	     14.67262426	      4.39333554	    -15.63503717	      0.00000000	    -10.02846963	      2.66075161	     -2.02958495	     92.65640790	     10.47079426	     65.40232873	    118.68910218	    110.97845608	     86.19080050	      5.95078974	     68.36442737	    137.62452853	     98.28648712
      5.48333330	     -2.22473706	     -4.67355982	      5.22256930	      0.02045654	      0.85373987	     -0.15234808	     24.30328705	     -2.00917800	     -1.96528971	     19.46871387	     -9.42786390	    -24.67230475	      0.00000000	      7.96093310	      2.69776463	     -0.57530103	     14.92022371	      4.39358582	    -15.81253908	      0.00000000	    -10.18795184	      2.40908064	     -1.82397307	     92.56079893	     10.60813757	     65.42793783	    118.66969884	    110.98188255	     86.04236688	      5.83858482	     68.35937804	    137.65101726	     98.29659488
      5.50000000	     -2.03750961	     -4.86479031	      5.26952150	      0.01987813	      0.85246501	     -0.15336047	     24.38735920	     -2.02028131	     -2.25729719	     18.84384473	     -9.19802428	    -23.98288854	      0.00000000	      8.13093971	      2.69983977	      1.08502509	     15.32640864	      3.31106107	    -18.65812446	      0.00000000	    -10.33094690	      2.81721288	     -2.33694836	     92.26951144	     11.16029034	     65.17844271	    118.36219932	    111.05327486	     85.42574509	      4.88177303	     67.67389201	    137.07896669	     98.42831836
      5.51666670	     -1.89116469	     -4.85469789	      5.14805709	      0.02062244	      0.85239175	     -0.15203371	     24.57783753	     -2.01944150	     -1.97416340	     18.34754891	     -9.18047439	    -23.82578117	      0.00000000	      8.29055965	      2.67740990	      1.53594209	     15.72904149	      3.35429650	    -18.66566369	      0.00000000	    -10.51366070	      2.46536829	     -2.15098516	     92.34186649	     11.24156134	     65.18771595	    118.34490046	    111.06084854	     85.37681906	      4.83571720	     67.61194268	    137.16025136	     98.43585704
      5.53333330	     -1.68556807	     -4.87040825	      5.21522786	      0.02018963	      0.85815944	     -0.15272145	     24.53870396	     -2.09622048	     -1.83061791	     17.68015661	     -9.59688407	    -23.22346789	      0.00000000	      8.56067358	      2.65685250	      2.13257359	     16.39665494	      3.47116683	    -19.28132858	      0.00000000	    -11.02752829	      2.36859177	     -2.13749458	     92.41815039	     11.30233376	     65.36870799	    118.42109110	    111.11255905	     85.04996169	      4.58172940	     67.30060377	    136.88336859	     98.45213805
      5.55000000	     -1.39679588	     -4.79734107	      5.26971509	      0.02109681	      0.85490319	     -0.15294483	     24.68466197	     -2.30585099	     -1.48301103	     17.44410265	     -9.85791798	    -22.87218697	      0.00000000	      8.81756870	      2.71229586	      2.43083860	     17.25342404	      3.20426873	    -19.29174557	      0.00000000	    -11.53264933	      2.34672557	     -2.14943725	     92.44515244	     11.44484903	     65.37274453	    118.62586924	    111.12190573	     84.89675344	      4.08431706	     67.27399178	    136.45967069	     98.45637583
      5.56666670	     -0.92609728	     -4.86829667	      5.76471182	      0.02239003	      0.85352601	     -0.15351408	     24.43454832	     -2.52421628	     -1.79577083	     17.04205467	     -9.86183873	    -22.16378610	      0.00000000	      8.97053151	      2.73438827	      3.31615593	     18.47262874	      2.30193269	    -21.16746031	      0.00000000	    -12.14832307	      2.17066973	     -2.81449975	     92.73292370	     11.27354198	     64.74773500	    119.24683164	    111.23782674	     84.98714504	      3.89328567	     65.99366153	    134.49721769	     98.38437251
      5.58333330	     -0.71201974	     -4.81508423	      5.83319076	      0.02221182	      0.84923621	     -0.15212159	     24.81856657	     -2.71016913	     -1.46123726	     16.91098295	     -9.67368492	    -22.10008592	      0.00000000	      9.60732092	      2.84887883	      3.54399365	     20.08094057	      2.40405392	    -21.81026932	      0.00000000	    -12.56746982	      1.96937839	     -2.51096125	     93.34056663	     11.22082628	     64.15790055	    119.34933964	    111.28038118	     85.23001521	      3.82428944	     65.41825848	    134.21951364	     98.34149668
      5.60000000	     -0.28108675	     -4.79188856	      5.96435773	      0.01986737	      0.85031570	     -0.15213547	     25.01171817	     -2.78314347	     -0.94156322	     16.62320994	     -9.61506559	    -21.76506916	      0.00000000	     10.13317440	      2.79918605	      3.54405827	     21.77715319	      2.60911563	    -22.41262832	      0.00000000	    -12.99783703	      1.80145284	     -3.01916883	     93.51516695	     11.02918501	     64.04772295	    119.69280221	    111.29592141	     85.13941681	      3.14176580	     65.43106623	    133.71610436	     98.32740202
      5.61666670	     -0.00453835	     -4.83676439	      6.29136192	      0.02023419	      0.84615287	     -0.15189515	     25.41388864	     -2.93156178	     -0.73929031	     16.54481309	     -9.22357404	    -21.58212431	      0.00000000	     11.07913385	      2.81495764	      3.79388230	     23.90153725	      2.79388673	    -23.26700459	      0.00000000	    -13.36690427	      1.78800842	     -3.35477388	     94.21455328	     11.17256597	     63.82840031	    120.17948271	    111.32162269	     85.80034209	      3.13625607	     65.40262013	    133.72600498	     98.33674860
      5.63333330	      0.25084524	     -4.84460081	      6.67325948	      0.01934080	      0.84329810	     -0.15164506	     25.80448710	     -3.13548837	     -0.72757424	     16.27678343	     -9.15150015	    -21.35468010	      0.00000000	     12.21144964	      2.87238246	      3.99563116	     26.30172179	      3.00076793	    -24.25589956	      0.00000000	    -13.81105623	      1.51245034	     -3.04516449	     95.01820172	     11.28832004	     63.79099922	    120.64100782	    111.40455991	     86.51464689	      4.40398730	     65.19433995	    135.79030800	     98.41602684
      5.65000000	      0.64950466	     -4.93644328	      6.87281346	      0.01849434	      0.84270308	     -0.15294243	     26.12887799	     -3.27139231	     -0.42020884	     15.94497325	     -9.21784463	    -20.90586448	      0.00000000	     13.00655219	      2.91144699	      4.36716182	     28.32612332	      3.38121434	    -25.19649402	      0.00000000	    -14.37829582	      1.51279225	     -3.22306627	     95.77145552	     11.21815020	     64.08098371	    121.42745835	    111.53537307	     86.78795849	      4.07646065	     64.95155821	    136.45502073	     98.50043680
      5.66666670	      1.20362881	     -4.88125590	      6.94201430	      0.01762142	      0.84025471	     -0.15281567	     26.34478923	     -3.42166844	      0.06862068	     15.75073559	     -9.28264285	    -20.51604356	      0.00000000	     13.94816305	      2.97863770	      4.31376477	     30.73644581	      3.85855903	    -26.13739315	      0.00000000	    -15.24710131	      1.26513332	     -3.66732617	     96.00839908	     11.43668023	     64.50794862	    121.95814409	    111.61614129	     86.82088309	      3.59459410	     65.12669775	    136.27104827	     98.55470286
      5.68333330	      1.54683933	     -4.95329724	      7.12973946	      0.01833599	      0.83404644	     -0.15158004	     26.87921191	     -3.63300223	      0.03268429	     15.42975107	     -9.21170720	    -19.90689241	      0.00000000	     15.41463434	      3.12036318	      4.85829487	     33.62728869	      4.26375698	    -27.40380258	      0.00000000	    -15.80079196	      1.27624017	     -4.23697884	     96.84537389	     11.78774118	     64.78386725	    123.15813842	    111.82638456	     87.49917103	      2.66738699	     66.03069910	    135.12073393	     98.69227973
